<?xml version="1.0"?><svg version="1.1" id="Layer_1" xmlns="http://www.w3.org/2000/svg" x="0" y="0" viewBox="0 0 100 100" xml:space="preserve"><path fill="none" stroke="#333" stroke-width="9" stroke-linecap="round" stroke-miterlimit="10" d="M50 12v57"/><path stroke-width="6" fill="none" stroke="#333" stroke-linecap="round" stroke-miterlimit="10" d="M50 63L32 90"/><path stroke-width="6" fill="none" stroke="#333" stroke-linecap="round" stroke-miterlimit="10" d="M50 63l18 27"/><path stroke="#333" stroke-width="3.5" stroke-miterlimit="10" fill="#f4e6c8" stroke-linecap="round" d="M13 17h74v54H13z"/><path stroke-width="6" fill="none" stroke="#333" stroke-linecap="round" stroke-miterlimit="10" d="M10 17h80"/><path stroke-width="6" fill="none" stroke="#333" stroke-linecap="round" stroke-miterlimit="10" d="M10 71h80"/><path stroke-linecap="round" fill="#f47e5f" stroke="#333" stroke-width="3.5" stroke-miterlimit="10" d="M21 41h10v21H21z"/><path stroke-linecap="round" fill="#f47e5f" stroke="#333" stroke-width="3.5" stroke-miterlimit="10" d="M36.667 47h10v15h-10z"/><path d="M93 71a3 3 0 0 0-3-3h-1.25V20H90a3 3 0 1 0 0-6H62.932L46.426 74h7.302l11.776 17.664a2.997 2.997 0 0 0 4.16.832 3 3 0 0 0 .832-4.16L60.939 74H90a3 3 0 0 0 3-3z" opacity=".2"/><path stroke-linecap="round" fill="#f47e5f" stroke="#333" stroke-width="3.5" stroke-miterlimit="10" d="M52.333 38h10v24h-10z"/><path stroke-linecap="round" fill="#f47e5f" stroke="#333" stroke-width="3.5" stroke-miterlimit="10" d="M68 27h10v35H68z"/><metadata xmlns:d="https://loading.io/stock/">
<d:name>presentation</d:name>
<d:tags>presentation,slide,keynote,talk,lecture,speaker,speech,pitch</d:tags>
<d:license>by</d:license>
<d:slug>tejhyv</d:slug>
</metadata></svg>